<svg width="360" height="486" viewBox="0 0 360 486" fill="none" xmlns="http://www.w3.org/2000/svg">
<path d="M0 135.677C0 135.677 55.5 -1.5 55.5 56.6765C55.5 147.315 117 55.353 91.5 91.6765C66 128 146.5 -16.5 146.5 29.6765C146.5 107.947 249.5 87.853 212 115.177C174.5 142.5 222.222 -34.7092 235 6.67651C268.5 115.176 275 56.6765 275 56.6765C275 56.6765 295.999 91.6765 317.5 91.6765C339.001 91.6765 360 56.6765 360 56.6765V485.676C360 485.676 296.789 457.303 254.5 460.176C221.413 462.424 206.53 482.712 173.5 485.676C127.113 489.839 102.596 450.687 57 460.176C33.1256 465.145 0 485.676 0 485.676V135.677Z" fill="url(#paint0_linear_1_34)"/>
<defs>
<linearGradient id="paint0_linear_1_34" x1="180" y1="0.380127" x2="180" y2="485.676" gradientUnits="userSpaceOnUse">
<stop stop-color="#004385"/>
<stop offset="1" stop-color="#004385" stop-opacity="0"/>
</linearGradient>
</defs>
</svg>
